<?xml version="1.0" encoding="UTF-8"?>
<svg version="1.1" xmlns="http://www.w3.org/2000/svg" width="450" height="450">
<path d="M0 0 C0.96696685 -0.00233999 0.96696685 -0.00233999 1.95346838 -0.00472724 C4.12920371 -0.00873889 6.30487014 -0.00554697 8.48060608 -0.00241089 C10.03413942 -0.00376487 11.58767243 -0.00554478 13.14120483 -0.00772095 C17.37255787 -0.01229603 21.60388664 -0.01050532 25.83524013 -0.00734186 C30.25459152 -0.00481819 34.67394077 -0.00715586 39.09329224 -0.00872803 C46.51732254 -0.01054989 53.94134291 -0.00814317 61.3653717 -0.00338745 C69.95806008 0.0020532 78.55072473 0.00029401 87.14341253 -0.00521386 C94.50901014 -0.00974689 101.87460059 -0.01039454 109.24019915 -0.00777519 C113.64449074 -0.0062132 118.04877117 -0.00601647 122.45306206 -0.00931168 C126.59390693 -0.01219307 130.73472112 -0.01020973 134.87556267 -0.00441742 C136.39858957 -0.00309118 137.92161904 -0.00348164 139.44464493 -0.00568008 C141.5174125 -0.00839696 143.59008063 -0.00500381 145.6628418 0 C146.82484572 0.00037703 147.98684965 0.00075405 149.18406582 0.0011425 C151.89491272 0.12698364 151.89491272 0.12698364 153.89491272 1.12698364 C154.73636426 6.59641868 152.7719515 9.26162935 149.73475647 13.51370239 C147.67581044 16.43819261 145.81661786 19.44679859 143.95741272 22.50198364 C140.85654939 27.58098393 137.6833685 32.60410741 134.43788147 37.59182739 C132.83250734 40.14648103 132.83250734 40.14648103 131.45350647 43.04104614 C129.76459102 46.38501408 127.82727244 49.43419976 125.76991272 52.56448364 C120.94675009 59.97049342 116.40795583 67.52944466 111.89491272 75.12698364 C106.6855639 83.87737083 101.40893442 92.56373335 95.89491272 101.12698364 C94.64357862 103.08446478 93.39356975 105.04279374 92.14491272 107.00198364 C91.59319397 107.86565552 91.04147522 108.72932739 90.47303772 109.61917114 C89.95225647 110.44674927 89.43147522 111.27432739 88.89491272 112.12698364 C88.33030334 113.01772583 87.76569397 113.90846802 87.18397522 114.82620239 C85.70844907 116.97064772 85.70844907 116.97064772 86.01991272 119.06448364 C88.28677762 124.40780806 91.1247452 129.10337953 94.39491272 133.88088989 C95.97937923 136.25346345 97.44178478 138.67169851 98.89491272 141.12698364 C99.58962604 142.29010215 100.28498624 143.45283443 100.98085022 144.61526489 C101.35153625 145.23482056 101.72222229 145.85437622 102.10414124 146.4927063 C105.2265828 151.70702023 108.35482101 156.91384834 111.59413147 162.05667114 C116.11668441 169.25472837 120.55873077 176.50266267 124.89491272 183.81448364 C125.47241272 184.78772583 126.04991272 185.76096802 126.64491272 186.76370239 C127.89491272 189.12698364 127.89491272 189.12698364 127.89491272 191.12698364 C128.55491272 191.12698364 129.21491272 191.12698364 129.89491272 191.12698364 C130.34479553 191.92878052 130.79467834 192.73057739 131.25819397 193.55667114 C135.25807087 200.62659385 139.35844295 207.6258748 143.58241272 214.56448364 C144.0333429 215.3087561 144.48427307 216.05302856 144.9488678 216.81985474 C147.08373877 220.3090137 149.27268243 223.69234622 151.69960022 226.98635864 C153.89491272 230.12698364 153.89491272 230.12698364 154.33241272 232.93948364 C153.89491272 235.12698364 153.89491272 235.12698364 151.89491272 237.12698364 C149.18685913 237.37866592 149.18685913 237.37866592 145.66957092 237.38095093 C145.02407193 237.38407091 144.37857294 237.38719089 143.71351337 237.39040542 C141.54081525 237.39841142 139.3683944 237.39205184 137.19569397 237.38577271 C135.64201188 237.38848142 134.08833107 237.39204168 132.53465271 237.39639282 C128.30746709 237.40553336 124.08037877 237.40196575 119.85319138 237.39563465 C115.43651307 237.39058324 111.01984329 237.3952637 106.60316467 237.39840698 C99.18509927 237.40204914 91.76707365 237.39724099 84.34901428 237.38772583 C75.7636652 237.3768408 67.17841109 237.3803662 58.59306431 237.39137864 C51.23168657 237.40044441 43.87033747 237.40174028 36.50895596 237.3965013 C32.10802083 237.39337768 27.7071304 237.39298296 23.30619812 237.39957428 C19.16940981 237.40533682 15.03274438 237.40137099 10.89596939 237.38978577 C9.37455576 237.38713331 7.85313185 237.3879142 6.33172226 237.3923111 C4.26109174 237.39774509 2.1908594 237.39095907 0.12025452 237.38095093 C-1.04045059 237.38019688 -2.2011557 237.37944283 -3.39703369 237.37866592 C-6.10508728 237.12698364 -6.10508728 237.12698364 -8.10508728 235.12698364 C-7.83387309 230.87320326 -6.18363411 228.57113549 -3.48008728 225.37698364 C-2.76207947 224.51202271 -2.04407166 223.64706177 -1.30430603 222.75588989 C-0.57856384 221.88835083 0.14717834 221.02081177 0.89491272 220.12698364 C2.17430555 218.5296352 3.44574423 216.92586835 4.70741272 215.31448364 C5.52145569 214.28387817 5.52145569 214.28387817 6.35194397 213.23245239 C7.94449398 211.13194775 7.94449398 211.13194775 9.29335022 208.75979614 C11.21500218 205.60078779 13.43063799 202.72004897 15.70741272 199.81448364 C18.97341706 195.62115825 22.20138811 191.40390739 25.38392639 187.14675903 C26.83545951 185.20645633 28.29369302 183.27140816 29.75428772 181.33792114 C30.71807548 180.0594608 31.68161131 178.78081049 32.64491272 177.50198364 C33.15715393 176.82264771 33.66939514 176.14331177 34.19715881 175.44338989 C36.79035896 171.98899415 39.34487556 168.51547861 41.82460022 164.97854614 C42.27996155 164.32966431 42.73532288 163.68078247 43.20448303 163.01223755 C44.06668143 161.77654787 44.92303446 160.53675434 45.77284241 159.29251099 C46.76520802 157.86906308 47.82398648 156.49230794 48.89491272 155.12698364 C49.55491272 155.12698364 50.21491272 155.12698364 50.89491272 155.12698364 C51.10760803 154.46182739 51.32030334 153.79667114 51.53944397 153.11135864 C53.3630239 149.09632963 55.90141536 145.85929269 58.58241272 142.37698364 C59.12116028 141.66759644 59.65990784 140.95820923 60.21498108 140.22732544 C63.09755272 136.43975534 66.01647107 132.68192656 68.95741272 128.93948364 C73.26192674 124.075023 73.26192674 124.075023 74.76991272 118.12698364 C71.85626506 111.46721757 66.98506711 105.95930145 62.54530334 100.27737427 C61.97876038 99.5458313 61.41221741 98.81428833 60.82850647 98.06057739 C60.31344543 97.40114136 59.7983844 96.74170532 59.26771545 96.06228638 C57.89491272 94.12698364 57.89491272 94.12698364 56.84046936 92.00613403 C55.93138649 89.94332673 55.93138649 89.94332673 53.83241272 88.12698364 C51.7568263 85.98444282 51.56853031 84.91768509 50.89491272 82.12698364 C49.90491272 81.79698364 48.91491272 81.46698364 47.89491272 81.12698364 C46.35194397 79.22854614 46.35194397 79.22854614 44.70741272 76.75198364 C42.10685055 72.90623704 39.45520192 69.11930848 36.70741272 65.37698364 C34.63157129 62.54266169 32.59249313 59.71642462 30.70741272 56.75198364 C28.93604235 54.01802621 28.93604235 54.01802621 26.39491272 51.62698364 C23.72945203 48.96152295 21.93038212 46.29992123 19.89491272 43.12698364 C18.03318849 40.51170436 16.16337984 37.90258931 14.28553772 35.29885864 C12.89491272 33.12698364 12.89491272 33.12698364 12.89491272 31.12698364 C11.90491272 30.79698364 10.91491272 30.46698364 9.89491272 30.12698364 C8.50371702 28.16679174 7.1785624 26.15922902 5.89491272 24.12698364 C4.42966178 22.13749265 2.95024342 20.15836434 1.45741272 18.18948364 C0.2875885 16.62907349 0.2875885 16.62907349 -0.90586853 15.03713989 C-2.20003143 13.32461527 -3.50527522 11.62019936 -4.83555603 9.93557739 C-6.23008728 8.12698364 -6.23008728 8.12698364 -8.10508728 5.12698364 C-7.25900691 -0.48603733 -5.33049413 0.0017301 0 0 Z M2.89491272 7.12698364 C4.35426013 10.04567846 5.56990354 12.1788835 7.50428772 14.70120239 C8.00879456 15.36450562 8.51330139 16.02780884 9.03309631 16.71121216 C9.56499573 17.40529175 10.09689514 18.09937134 10.64491272 18.81448364 C14.4730827 23.85307262 18.15740576 28.91102329 21.58631897 34.23245239 C23.41753542 36.88361651 25.5159619 39.25064338 27.69569397 41.61917114 C28.89491272 43.12698364 28.89491272 43.12698364 29.89491272 46.12698364 C30.55491272 46.12698364 31.21491272 46.12698364 31.89491272 46.12698364 C32.14756897 46.67870239 32.40022522 47.23042114 32.66053772 47.79885864 C34.10459712 50.52246434 35.81568155 52.89546849 37.64491272 55.37698364 C38.71032288 56.82524536 38.71032288 56.82524536 39.79725647 58.30276489 C42.4841334 61.92029194 45.17967903 65.53070067 47.89491272 69.12698364 C48.40409241 69.86046021 48.91327209 70.59393677 49.43788147 71.34963989 C49.91870178 71.93616333 50.39952209 72.52268677 50.89491272 73.12698364 C51.55491272 73.12698364 52.21491272 73.12698364 52.89491272 73.12698364 C53.23522522 71.95135864 53.23522522 71.95135864 53.58241272 70.75198364 C54.89491272 68.12698364 54.89491272 68.12698364 57.51991272 66.81448364 C58.30366272 66.58760864 59.08741272 66.36073364 59.89491272 66.12698364 C59.89491272 65.46698364 59.89491272 64.80698364 59.89491272 64.12698364 C64.51491272 64.12698364 69.13491272 64.12698364 73.89491272 64.12698364 C74.88491272 66.10698364 74.88491272 66.10698364 75.89491272 68.12698364 C78.48640558 71.7491839 81.00546932 74.66260431 85.43788147 75.75198364 C88.107431 75.87816619 90.304201 75.78494217 92.89491272 75.12698364 C95.11022933 72.89986301 95.11022933 72.89986301 96.89491272 70.12698364 C100.20996682 67.97820657 103.50709556 66.30125777 107.44569397 65.80667114 C110.80393272 64.87471972 111.4065906 63.47820181 113.14491272 60.50198364 C113.73659241 59.51198364 114.32827209 58.52198364 114.93788147 57.50198364 C115.58370178 56.38823364 116.22952209 55.27448364 116.89491272 54.12698364 C118.02254885 52.23034487 119.15673803 50.33773859 120.29188538 48.44558716 C121.06850309 47.15051937 121.84292167 45.85413025 122.61512756 44.556427 C125.14184714 40.3229491 127.77916158 36.19599623 130.60585022 32.15432739 C131.99259211 30.05197433 131.99259211 30.05197433 133.26600647 27.36526489 C135.53137472 22.86169107 138.19039113 18.62579992 140.84217834 14.34182739 C143.10960478 10.98078396 143.10960478 10.98078396 143.89491272 7.12698364 C97.36491272 7.12698364 50.83491272 7.12698364 2.89491272 7.12698364 Z M79.89491272 125.12698364 C78.61239294 126.81103999 77.36961753 128.52542611 76.14491272 130.25198364 C71.65563397 136.51292419 71.65563397 136.51292419 69.14491272 139.43948364 C66.81971264 142.21680596 64.90175038 145.11301079 62.89491272 148.12698364 C61.57626682 149.92948752 60.24225988 151.72083153 58.89491272 153.50198364 C58.11116272 154.54096802 57.32741272 155.57995239 56.51991272 156.65042114 C56.09838928 157.20826294 55.67686584 157.76610474 55.24256897 158.34085083 C52.2722819 162.27755738 49.31783215 166.2262063 46.36244202 170.17410278 C43.97496727 173.36162535 41.58145775 176.54381462 39.16444397 179.70901489 C38.74743225 180.25751099 38.33042053 180.80600708 37.90077209 181.37112427 C36.78308992 182.84002572 35.66141034 184.30588315 34.53944397 185.77151489 C32.74460826 188.1049045 32.74460826 188.1049045 31.89491272 191.12698364 C31.23491272 191.12698364 30.57491272 191.12698364 29.89491272 191.12698364 C27.5789925 194.34812521 27.5789925 194.34812521 26.89491272 198.12698364 C26.23491272 198.12698364 25.57491272 198.12698364 24.89491272 198.12698364 C23.67886746 199.63822176 23.67886746 199.63822176 22.45741272 201.68948364 C19.56295954 206.1808765 16.49223528 210.5082378 13.33241272 214.81448364 C12.87358704 215.44362671 12.41476135 216.07276978 11.94203186 216.72097778 C9.73549115 219.72321644 7.48686942 222.63518185 5.05506897 225.45901489 C2.68515815 227.81390901 2.68515815 227.81390901 2.89491272 230.12698364 C49.42491272 230.12698364 95.95491272 230.12698364 143.89491272 230.12698364 C142.85332926 225.96064979 141.38057957 223.47559742 139.08241272 219.87698364 C136.05351521 215.07739805 133.31222934 210.26378146 130.89491272 205.12698364 C130.23491272 205.12698364 129.57491272 205.12698364 128.89491272 205.12698364 C128.64354553 204.43088989 128.39217834 203.73479614 128.13319397 203.01760864 C126.72968692 199.74128305 124.98566751 196.89016713 123.08241272 193.87698364 C120.23557929 189.33712504 117.51645243 184.76172078 115.00038147 180.02932739 C113.77975988 177.92882311 112.3609252 176.06227525 110.89491272 174.12698364 C109.94241302 172.48474278 108.99210893 170.84109758 108.06288147 169.18557739 C105.14769598 164.04744109 102.13255904 158.96470091 98.83241272 154.06448364 C96.74164877 150.89461571 94.94249571 147.62808628 93.12147522 144.29885864 C91.52511857 141.4721889 89.72298029 138.80814941 87.89491272 136.12698364 C86.89491272 134.46031698 85.89491272 132.79365031 84.89491272 131.12698364 C83.59702316 129.10380286 82.27026611 127.0983235 80.89491272 125.12698364 C80.56491272 125.12698364 80.23491272 125.12698364 79.89491272 125.12698364 Z " fill="#1D1D1E" transform="translate(151.10508728027344,113.87301635742188)"/>
<path d="M0 0 C2.60166706 2.01037909 4.29372613 4.07774023 6.27734375 6.66796875 C8.52104073 9.28457935 10.03507453 10.78285354 13.46484375 11.5546875 C16.14279795 11.68838859 18.38887481 11.61198247 21 11 C23.21531661 8.77287937 23.21531661 8.77287937 25 6 C31.36712946 1.71084584 31.36712946 1.71084584 35.25 2.3984375 C36.11625 2.69621094 36.11625 2.69621094 37 3 C35.36786663 7.64530265 35.36786663 7.64530265 33.66333008 9.28881836 C31.38126339 11.63653675 29.88699701 14.26239329 28.19921875 17.06640625 C27.84036087 17.65993393 27.48150299 18.25346161 27.11177063 18.86497498 C25.966271 20.7617268 24.82681701 22.66202945 23.6875 24.5625 C22.93333747 25.81338913 22.17878377 27.06404251 21.42382812 28.31445312 C19.27698098 31.87297391 17.13777374 35.43602066 15 39 C14.06921631 40.55050049 14.06921631 40.55050049 13.11962891 42.13232422 C11.74582347 44.42119301 10.37256852 46.71038934 9 49 C5.61001015 47.58474814 3.96192319 46.00169691 1.828125 43.03515625 C1.24981934 42.23972412 0.67151367 41.44429199 0.07568359 40.62475586 C-0.52679199 39.77921143 -1.12926758 38.93366699 -1.75 38.0625 C-2.37181152 37.20599854 -2.99362305 36.34949707 -3.63427734 35.46704102 C-6.30249198 31.78668502 -8.94424998 28.08872332 -11.5546875 24.3671875 C-12.23789063 23.40039062 -12.92109375 22.43359375 -13.625 21.4375 C-14.19476563 20.61121094 -14.76453125 19.78492188 -15.3515625 18.93359375 C-17.09571505 16.8877276 -18.52726965 15.99881029 -21 15 C-21 13.35 -21 11.7 -21 10 C-20.34 10 -19.68 10 -19 10 C-18.773125 9.21625 -18.54625 8.4325 -18.3125 7.625 C-17 5 -17 5 -14.375 3.6875 C-13.59125 3.460625 -12.8075 3.23375 -12 3 C-12 2.34 -12 1.68 -12 1 C-8.27730759 -0.86134621 -4.05409075 -0.56538825 0 0 Z " fill="#424BCB" transform="translate(223,177)"/>
<path d="M0 0 C0.99 0.66 1.98 1.32 3 2 C3.3125 4.5 3.3125 4.5 3 7 C1 9 1 9 -1.71364021 9.24609566 C-3.45859433 9.24333028 -3.45859433 9.24333028 -5.23880005 9.24050903 C-5.88571017 9.24221788 -6.53262029 9.24392673 -7.19913375 9.24568737 C-9.37651928 9.24899337 -11.55359968 9.23796063 -13.73095703 9.22705078 C-15.28788241 9.22648691 -16.84480833 9.22680276 -18.4017334 9.22793579 C-22.63706335 9.22851123 -26.87228075 9.2167261 -31.10758448 9.20278788 C-35.53052867 9.19031228 -39.95347525 9.18911253 -44.37643433 9.18673706 C-52.75581056 9.18051294 -61.1351348 9.16408956 -69.5144881 9.14403808 C-79.0524352 9.12170802 -88.59038473 9.11069294 -98.12835145 9.10064721 C-117.75226335 9.07972411 -137.37612841 9.04453008 -157 9 C-157.33 8.34 -157.66 7.68 -158 7 C-105.86 6.67 -53.72 6.34 0 6 C0 4.02 0 2.04 0 0 Z " fill="#DCDCDC" transform="translate(302,342)"/>
<path d="M0 0 C0.66 0 1.32 0 2 0 C2.84145154 5.46943504 0.87703878 8.13464571 -2.16015625 12.38671875 C-4.21910228 15.31120896 -6.07829486 18.31981495 -7.9375 21.375 C-11.03836333 26.45400029 -14.21154422 31.47712377 -17.45703125 36.46484375 C-19.06240538 39.01949739 -19.06240538 39.01949739 -20.44140625 41.9140625 C-22.1303217 45.25803044 -24.06764028 48.30721612 -26.125 51.4375 C-30.94816263 58.84350978 -35.48695689 66.40246101 -40 74 C-45.78786455 83.72214717 -51.67615924 93.35426589 -57.84765625 102.83984375 C-61.24937646 108.10492663 -64.32506285 113.32913325 -67 119 C-67.66 118.67 -68.32 118.34 -69 118 C-68.37955991 115.00943725 -67.42240297 112.75413366 -65.83984375 110.1484375 C-65.38456299 109.39369141 -64.92928223 108.63894531 -64.46020508 107.86132812 C-63.9577124 107.04083984 -63.45521973 106.22035156 -62.9375 105.375 C-62.40729248 104.50037109 -61.87708496 103.62574219 -61.33081055 102.72460938 C-56.35191407 94.52929567 -51.31561825 86.36874094 -46.28149414 78.20727539 C-41.27986883 70.09536589 -36.31626147 61.96127895 -31.375 53.8125 C-31.02121277 53.22910858 -30.66742554 52.64571716 -30.30291748 52.04464722 C-28.8934501 49.7202716 -27.48413252 47.39580529 -26.07507324 45.07118225 C-22.53504874 39.23140299 -18.98726721 33.39636046 -15.4375 27.5625 C-14.86539795 26.62083984 -14.2932959 25.67917969 -13.70385742 24.70898438 C-11.28717021 20.7351772 -8.86362792 16.76718269 -6.390625 12.828125 C-5.82130249 11.91824829 -5.82130249 11.91824829 -5.24047852 10.98999023 C-4.28358791 9.46557675 -3.31990295 7.94543344 -2.35546875 6.42578125 C-1.12863644 4.23021104 -0.4434694 2.45923939 0 0 Z " fill="#D5D5D5" transform="translate(303,115)"/>
<path d="M0 0 C0.66 0 1.32 0 2 0 C0.52769684 4.31288807 -1.76576765 7.71781434 -4.5 11.3125 C-5.10521484 12.13717773 -5.10521484 12.13717773 -5.72265625 12.97851562 C-6.76268691 14.36007451 -7.87633454 15.68556298 -9 17 C-9.66 17 -10.32 17 -11 17 C-11.37898438 18.33417969 -11.37898438 18.33417969 -11.765625 19.6953125 C-13.03198058 23.0856189 -14.42718782 25.12903986 -16.75 27.875 C-17.46800781 28.74125 -18.18601563 29.6075 -18.92578125 30.5 C-19.61027344 31.325 -20.29476562 32.15 -21 33 C-23.03645888 35.63966316 -25.01353039 38.32258444 -27 41 C-28.43662586 42.91732196 -29.87420384 44.83393072 -31.3125 46.75 C-32.07304687 47.76449219 -32.83359375 48.77898437 -33.6171875 49.82421875 C-35.24575389 51.99475067 -36.87572281 54.16415454 -38.5078125 56.33203125 C-38.91475342 56.87311523 -39.32169434 57.41419922 -39.7409668 57.97167969 C-40.87756682 59.48281737 -42.01493399 60.99337795 -43.15234375 62.50390625 C-44.48287762 64.30139282 -45.7594941 66.13924116 -47 68 C-47.66 68 -48.32 68 -49 68 C-49.12375 68.598125 -49.2475 69.19625 -49.375 69.8125 C-50 72 -50 72 -52 75 C-52.66 75 -53.32 75 -54 75 C-54.24492187 75.70898438 -54.48984375 76.41796875 -54.7421875 77.1484375 C-56.16970241 80.38472906 -57.96136085 82.82810061 -60.125 85.625 C-60.92421875 86.66914063 -61.7234375 87.71328125 -62.546875 88.7890625 C-62.95486328 89.32047852 -63.36285156 89.85189453 -63.78320312 90.39941406 C-66.3405109 93.76332052 -68.79731879 97.20123092 -71.2734375 100.625 C-71.84320313 101.40875 -72.41296875 102.1925 -73 103 C-73.52851563 103.763125 -74.05703125 104.52625 -74.6015625 105.3125 C-75.06304687 105.869375 -75.52453125 106.42625 -76 107 C-76.66 107 -77.32 107 -78 107 C-77.38503677 103.44160141 -75.9625664 101.33454244 -73.75390625 98.5078125 C-72.75327148 97.21423828 -72.75327148 97.21423828 -71.73242188 95.89453125 C-71.01634766 94.98058594 -70.30027344 94.06664062 -69.5625 93.125 C-68.0830055 91.21219708 -66.60513769 89.29813485 -65.12890625 87.3828125 C-64.41234863 86.4537207 -63.69579102 85.52462891 -62.95751953 84.56738281 C-60.56242273 81.42609596 -58.27051585 78.23246681 -56 75 C-51.89561102 69.15781959 -47.59095534 63.4806264 -43.25 57.8125 C-35.7086329 47.96432017 -28.33032644 38.00576254 -21 28 C-18.523002 24.62340225 -16.04322231 21.24886208 -13.5625 17.875 C-12.72984619 16.73877197 -12.72984619 16.73877197 -11.88037109 15.57958984 C-10.2628338 13.37933121 -8.63434599 11.18779826 -7 9 C-6.37464355 8.15727539 -5.74928711 7.31455078 -5.10498047 6.44628906 C-4.48123535 5.6209668 -3.85749023 4.79564453 -3.21484375 3.9453125 C-2.64757568 3.19008301 -2.08030762 2.43485352 -1.49584961 1.65673828 C-1.00221924 1.11001465 -0.50858887 0.56329102 0 0 Z " fill="#D7D7D7" transform="translate(230,237)"/>
<path d="M0 0 C47.85 0 95.7 0 145 0 C145 0.66 145 1.32 145 2 C98.14 2 51.28 2 3 2 C2.67 2.66 2.34 3.32 2 4 C1.34 2.68 0.68 1.36 0 0 Z " fill="#DBDBDB" transform="translate(151,119)"/>
<path d="M0 0 C0.99 0 1.98 0 3 0 C1.47017797 4.25306543 -0.68200864 7.99264178 -3.0625 11.8125 C-3.42666016 12.40998047 -3.79082031 13.00746094 -4.16601562 13.62304688 C-5.08006254 15.10140371 -6.03635975 16.55348068 -7 18 C-7.33 18 -7.66 18 -8 18 C-8.55268519 13.18892071 -6.68583521 10.11220523 -4.1875 6.1875 C-3.83107422 5.59001953 -3.47464844 4.99253906 -3.10742188 4.37695312 C-2.04296875 2.66796875 -2.04296875 2.66796875 0 0 Z " fill="#DDDDDD" transform="translate(280,155)"/>
<path d="M0 0 C0.66 0.99 1.32 1.98 2 3 C0.73161177 5.08485667 -0.53960758 7.16789576 -1.8125 9.25 C-2.16892578 9.83652344 -2.52535156 10.42304688 -2.89257812 11.02734375 C-4.79556495 14.13497361 -6.7498921 17.1323546 -9 20 C-9.66 19.67 -10.32 19.34 -11 19 C-7.37 12.73 -3.74 6.46 0 0 Z " fill="#D2D2D2" transform="translate(292,135)"/>
<path d="M0 0 C-1 2 -2 4 -3 6 C-3.66 6 -4.32 6 -5 6 C-5.4021875 7.1446875 -5.4021875 7.1446875 -5.8125 8.3125 C-6.94424112 10.87380884 -7.91223401 12.19692938 -10 14 C-9.71345437 8.26908731 -6.4796684 0 0 0 Z " fill="#DBDBDB" transform="translate(181,306)"/>
<path d="M0 0 C0.66 0 1.32 0 2 0 C0.40956621 5.08938811 -2.7446951 8.87456643 -6 13 C-6.70703125 11.296875 -6.70703125 11.296875 -7 9 C-5.63671875 6.640625 -5.63671875 6.640625 -3.6875 4.25 C-3.05199219 3.45078125 -2.41648438 2.6515625 -1.76171875 1.828125 C-1.18035156 1.22484375 -0.59898437 0.6215625 0 0 Z " fill="#D9D9D9" transform="translate(230,237)"/>
<path d="M0 0 C0.99 0.33 1.98 0.66 3 1 C0.525 5.455 0.525 5.455 -2 10 C-2.33 10 -2.66 10 -3 10 C-3.36629408 5.72656908 -2.40814077 3.51187196 0 0 Z " fill="#DEDEDE" transform="translate(253,199)"/>
<path d="M0 0 C0.33 1.32 0.66 2.64 1 4 C-0.4375 6.25 -0.4375 6.25 -2 8 C-2.99 7.67 -3.98 7.34 -5 7 C-3.35 4.69 -1.7 2.38 0 0 Z " fill="#CCCCCC" transform="translate(170,317)"/>
<path d="M0 0 C0.33 1.32 0.66 2.64 1 4 C-0.4375 6.25 -0.4375 6.25 -2 8 C-2.99 7.67 -3.98 7.34 -5 7 C-3.35 4.69 -1.7 2.38 0 0 Z " fill="#CCCCCC" transform="translate(190,290)"/>
<path d="M0 0 C0.33 1.32 0.66 2.64 1 4 C-0.9375 6.25 -0.9375 6.25 -3 8 C-3.66 7.67 -4.32 7.34 -5 7 C-3.35 4.69 -1.7 2.38 0 0 Z " fill="#CCCCCC" transform="translate(222,247)"/>
<path d="M0 0 C0.33 0 0.66 0 1 0 C1.20086443 3.71599191 1.1519437 4.77208445 -1 8 C-1.99 7.67 -2.98 7.34 -4 7 C-2.68 4.69 -1.36 2.38 0 0 Z " fill="#D0D0D0" transform="translate(258,191)"/>
<path d="M0 0 C0.99 0 1.98 0 3 0 C1.66666667 2.66666667 0.33333333 5.33333333 -1 8 C-1.93065133 5.39417629 -2.14917407 4.35801776 -1.0625 1.75 C-0.711875 1.1725 -0.36125 0.595 0 0 Z " fill="#E0E0E0" transform="translate(261,186)"/>
<path d="M0 0 C0.99 0 1.98 0 3 0 C1.79618552 2.49361571 0.54571278 4.68143083 -1 7 C-1.625 5.1875 -1.625 5.1875 -2 3 C-1.34 2.01 -0.68 1.02 0 0 Z " fill="#D9D9D9" transform="translate(236,227)"/>
</svg>
